<svg version="1.1" xmlns="http://www.w3.org/2000/svg" xmlns:xlink="http://www.w3.org/1999/xlink" width="154" height="38" viewBox="0,0,256,63.1625"><g fill="none" fill-rule="nonzero" stroke="none" stroke-width="1" stroke-linecap="butt" stroke-linejoin="miter" stroke-miterlimit="10" stroke-dasharray="" stroke-dashoffset="0" font-family="none" font-weight="none" font-size="none" text-anchor="none" style="mix-blend-mode: normal"><g transform="translate(0.8896,0.734) scale(1.66234,1.66234)"><path d="M3.73118,0h22.38892c2.0616,0 3.7315,1.66081 3.7315,3.71131v29.69049c0,2.0505 -1.6699,3.7113 -3.7315,3.7113h-22.38892c-2.06164,0 -3.73148,-1.6608 -3.73148,-3.7113v-29.69049c0,-2.0505 1.66984,-3.71131 3.73148,-3.71131zM26.1201,3.71131h-9.3287v14.84529l4.6643,-2.7835l4.6644,2.7835z" fill="#c35bb1"></path><path d="M42.141,26.2112v-2.3752h3.1732c0.5691,0 0.9959,-0.1485 1.2804,-0.4454c0.2846,-0.2969 0.4268,-0.7175 0.4268,-1.2619c0,-0.5443 -0.1422,-0.9587 -0.4268,-1.2432c-0.2845,-0.2969 -0.7113,-0.4454 -1.2804,-0.4454h-3.1732v-1.8371h3.0248c0.9402,0 1.7752,0.1175 2.5051,0.3526c0.7299,0.2227 1.3051,0.5876 1.7258,1.0948c0.4206,0.5072 0.6309,1.1938 0.6309,2.0598v0.2598c0,0.8041 -0.1856,1.4969 -0.5567,2.0783c-0.3711,0.5691 -0.9155,1.0083 -1.633,1.3175c-0.7175,0.2969 -1.6082,0.4454 -2.6721,0.4454zM39.5431,26.2112v-13.7504h2.9691v13.7504zM42.141,19.9576v-1.8185h2.6722c0.5814,0 1.002,-0.1485 1.2618,-0.4454c0.2598,-0.2969 0.3897,-0.6928 0.3897,-1.1876c0,-0.5196 -0.1299,-0.9278 -0.3897,-1.2247c-0.2598,-0.2969 -0.6804,-0.4454 -1.2618,-0.4454h-2.6722v-2.3752h2.4866c1.5588,0 2.7526,0.3278 3.5814,0.9835c0.8413,0.6556 1.2619,1.5897 1.2619,2.802v0.2784c0,0.8412 -0.2165,1.5154 -0.6495,2.0226c-0.4206,0.5072 -0.9959,0.8722 -1.7258,1.0949c-0.7175,0.2103 -1.5402,0.3154 -2.468,0.3154zM56.3461,26.471c-0.8907,0 -1.6825,-0.1361 -2.3752,-0.4083c-0.6928,-0.2845 -1.2805,-0.668 -1.7629,-1.1505c-0.4701,-0.4824 -0.8289,-1.033 -1.0763,-1.6515c-0.2474,-0.6309 -0.3711,-1.2928 -0.3711,-1.9856v-0.4268c0,-0.7051 0.1237,-1.3731 0.3711,-2.0041c0.2598,-0.6433 0.6309,-1.2061 1.1134,-1.6886c0.4948,-0.4825 1.0886,-0.8598 1.7814,-1.132c0.6928,-0.2845 1.466,-0.4268 2.3196,-0.4268c0.8783,0 1.6577,0.1423 2.3381,0.4268c0.6928,0.2722 1.2804,0.6495 1.7629,1.132c0.4825,0.4825 0.8536,1.0453 1.1134,1.6886c0.2598,0.631 0.3897,1.299 0.3897,2.0041v0.4268c0,0.6928 -0.1237,1.3547 -0.3712,1.9856c-0.2474,0.6185 -0.6123,1.1691 -1.0948,1.6515c-0.4701,0.4825 -1.0515,0.866 -1.7443,1.1505c-0.6928,0.2722 -1.4907,0.4083 -2.3938,0.4083zM56.3461,23.9658c0.5814,0 1.0639,-0.1237 1.4474,-0.3711c0.3835,-0.2474 0.6742,-0.5938 0.8722,-1.0392c0.2103,-0.4453 0.3154,-0.9402 0.3154,-1.4845c0,-0.5814 -0.1051,-1.0886 -0.3154,-1.5216c-0.2103,-0.4454 -0.5134,-0.7979 -0.9093,-1.0577c-0.3835,-0.2598 -0.8536,-0.3897 -1.4103,-0.3897c-0.5443,0 -1.0144,0.1299 -1.4103,0.3897c-0.3959,0.2598 -0.699,0.6123 -0.9093,1.0577c-0.1979,0.433 -0.2969,0.9402 -0.2969,1.5216c0,0.5443 0.099,1.0392 0.2969,1.4845c0.198,0.4454 0.4949,0.7918 0.8907,1.0392c0.3959,0.2474 0.8722,0.3711 1.4289,0.3711zM68.2346,26.471c-0.8907,0 -1.6824,-0.1361 -2.3752,-0.4083c-0.6928,-0.2845 -1.2804,-0.668 -1.7629,-1.1505c-0.4701,-0.4824 -0.8289,-1.033 -1.0763,-1.6515c-0.2474,-0.6309 -0.3711,-1.2928 -0.3711,-1.9856v-0.4268c0,-0.7051 0.1237,-1.3731 0.3711,-2.0041c0.2598,-0.6433 0.6309,-1.2061 1.1134,-1.6886c0.4949,-0.4825 1.0887,-0.8598 1.7814,-1.132c0.6928,-0.2845 1.466,-0.4268 2.3196,-0.4268c0.8784,0 1.6577,0.1423 2.3381,0.4268c0.6928,0.2722 1.2804,0.6495 1.7629,1.132c0.4825,0.4825 0.8536,1.0453 1.1134,1.6886c0.2598,0.631 0.3897,1.299 0.3897,2.0041v0.4268c0,0.6928 -0.1237,1.3547 -0.3711,1.9856c-0.2475,0.6185 -0.6124,1.1691 -1.0949,1.6515c-0.4701,0.4825 -1.0515,0.866 -1.7443,1.1505c-0.6928,0.2722 -1.4907,0.4083 -2.3938,0.4083zM68.2346,23.9658c0.5815,0 1.0639,-0.1237 1.4474,-0.3711c0.3835,-0.2474 0.6743,-0.5938 0.8722,-1.0392c0.2103,-0.4453 0.3154,-0.9402 0.3154,-1.4845c0,-0.5814 -0.1051,-1.0886 -0.3154,-1.5216c-0.2103,-0.4454 -0.5134,-0.7979 -0.9093,-1.0577c-0.3835,-0.2598 -0.8536,-0.3897 -1.4103,-0.3897c-0.5443,0 -1.0144,0.1299 -1.4103,0.3897c-0.3959,0.2598 -0.6989,0.6123 -0.9093,1.0577c-0.1979,0.433 -0.2969,0.9402 -0.2969,1.5216c0,0.5443 0.099,1.0392 0.2969,1.4845c0.198,0.4454 0.4949,0.7918 0.8908,1.0392c0.3958,0.2474 0.8721,0.3711 1.4288,0.3711zM82.3314,26.1184l-3.2103,-4.7505h-1.4289l4.1381,-5.4185h3.1175l-3.8968,5.0474l0.0371,-1.4474l4.5835,6.569zM75.1685,26.1184v-13.5463h2.9691v13.5463zM91.807,26.1184l-3.3402,-13.5463h3.136l2.6165,11.5051l-0.6495,-0.4268h1.6887l-0.7237,0.4268l2.0226,-11.0041h2.5237l-2.6536,13.0453zM99.8791,26.1184l-2.8577,-13.0453h2.6535l2.3381,11.0041l-0.705,-0.4268h1.614l-0.612,0.4268l2.282,-11.5051h2.969l-2.969,13.5463zM113.034,26.471c-0.89,0 -1.682,-0.1361 -2.375,-0.4083c-0.693,-0.2845 -1.28,-0.668 -1.763,-1.1505c-0.47,-0.4824 -0.829,-1.033 -1.076,-1.6515c-0.248,-0.6309 -0.371,-1.2928 -0.371,-1.9856v-0.4268c0,-0.7051 0.123,-1.3731 0.371,-2.0041c0.26,-0.6433 0.631,-1.2061 1.113,-1.6886c0.495,-0.4825 1.089,-0.8598 1.782,-1.132c0.692,-0.2845 1.466,-0.4268 2.319,-0.4268c0.879,0 1.658,0.1423 2.338,0.4268c0.693,0.2722 1.281,0.6495 1.763,1.132c0.483,0.4825 0.854,1.0453 1.114,1.6886c0.259,0.631 0.389,1.299 0.389,2.0041v0.4268c0,0.6928 -0.123,1.3547 -0.371,1.9856c-0.247,0.6185 -0.612,1.1691 -1.095,1.6515c-0.47,0.4825 -1.051,0.866 -1.744,1.1505c-0.693,0.2722 -1.491,0.4083 -2.394,0.4083zM113.034,23.9658c0.582,0 1.064,-0.1237 1.448,-0.3711c0.383,-0.2474 0.674,-0.5938 0.872,-1.0392c0.21,-0.4453 0.315,-0.9402 0.315,-1.4845c0,-0.5814 -0.105,-1.0886 -0.315,-1.5216c-0.211,-0.4454 -0.514,-0.7979 -0.909,-1.0577c-0.384,-0.2598 -0.854,-0.3897 -1.411,-0.3897c-0.544,0 -1.014,0.1299 -1.41,0.3897c-0.396,0.2598 -0.699,0.6123 -0.909,1.0577c-0.198,0.433 -0.297,0.9402 -0.297,1.5216c0,0.5443 0.099,1.0392 0.297,1.4845c0.198,0.4454 0.494,0.7918 0.89,1.0392c0.396,0.2474 0.873,0.3711 1.429,0.3711zM119.968,26.1184v-10.169h2.357v4.3608h-0.056c0,-1.435 0.303,-2.5422 0.909,-3.3216c0.619,-0.7794 1.51,-1.1691 2.673,-1.1691h0.389v2.5608h-0.742c-0.816,0 -1.447,0.2227 -1.893,0.6681c-0.445,0.4329 -0.668,1.0639 -0.668,1.8927v5.1773zM127.036,26.1184v-10.169h2.357v4.3794h-0.167c0,-1.0392 0.13,-1.9052 0.39,-2.598c0.259,-0.6927 0.649,-1.2123 1.169,-1.5587c0.519,-0.3588 1.156,-0.5382 1.911,-0.5382h0.13c0.767,0 1.404,0.1794 1.911,0.5382c0.52,0.3464 0.91,0.866 1.169,1.5587c0.273,0.6928 0.409,1.5588 0.409,2.598h-0.724c0,-1.0392 0.13,-1.9052 0.39,-2.598c0.272,-0.6927 0.668,-1.2123 1.187,-1.5587c0.52,-0.3588 1.157,-0.5382 1.912,-0.5382h0.129c0.767,0 1.411,0.1794 1.93,0.5382c0.532,0.3464 0.934,0.866 1.206,1.5587c0.273,0.6928 0.409,1.5588 0.409,2.598v5.7896h-2.969v-5.9566c0,-0.5567 -0.149,-1.0083 -0.446,-1.3547c-0.284,-0.3464 -0.692,-0.5196 -1.224,-0.5196c-0.532,0 -0.953,0.1794 -1.262,0.5382c-0.31,0.3464 -0.464,0.8103 -0.464,1.3917v5.901h-2.988v-5.9566c0,-0.5567 -0.148,-1.0083 -0.445,-1.3547c-0.285,-0.3464 -0.687,-0.5196 -1.206,-0.5196c-0.545,0 -0.971,0.1794 -1.281,0.5382c-0.309,0.3464 -0.464,0.8103 -0.464,1.3917v5.901zM148.402,26.4339c-1.447,0 -2.579,-0.2969 -3.396,-0.8907c-0.816,-0.5939 -1.249,-1.4289 -1.299,-2.5052h2.636c0.049,0.3217 0.241,0.6124 0.575,0.8722c0.346,0.2474 0.86,0.3711 1.54,0.3711c0.52,0 0.946,-0.0866 1.28,-0.2598c0.347,-0.1855 0.52,-0.4453 0.52,-0.7794c0,-0.2969 -0.13,-0.5319 -0.39,-0.7051c-0.26,-0.1856 -0.723,-0.3155 -1.391,-0.3897l-0.798,-0.0742c-1.225,-0.1237 -2.147,-0.4639 -2.765,-1.0206c-0.607,-0.5567 -0.91,-1.2681 -0.91,-2.134c0,-0.7176 0.18,-1.3176 0.539,-1.8c0.358,-0.4825 0.853,-0.8474 1.484,-1.0949c0.643,-0.2474 1.373,-0.3711 2.19,-0.3711c1.311,0 2.369,0.2907 3.173,0.8722c0.804,0.569 1.225,1.3979 1.262,2.4865h-2.635c-0.05,-0.334 -0.223,-0.6123 -0.52,-0.835c-0.297,-0.2351 -0.736,-0.3526 -1.317,-0.3526c-0.458,0 -0.823,0.0866 -1.095,0.2598c-0.272,0.1732 -0.408,0.4083 -0.408,0.7052c0,0.2845 0.117,0.501 0.352,0.6494c0.235,0.1485 0.619,0.2537 1.151,0.3155l0.798,0.0742c1.249,0.1361 2.22,0.4825 2.913,1.0392c0.693,0.5567 1.039,1.3051 1.039,2.2453c0,0.6805 -0.185,1.2743 -0.557,1.7815c-0.371,0.4948 -0.896,0.8783 -1.577,1.1505c-0.68,0.2598 -1.478,0.3897 -2.394,0.3897z" fill="#171921"></path></g></g></svg>